<svg width="360" height="107" viewBox="0 0 360 107" fill="none" xmlns="http://www.w3.org/2000/svg">
<g clip-path="url(#clip0_220_200)">
<path d="M347.192 107H12.6107C5.65867 107 0 101.308 0 94.3392V12.642C0 5.671 5.65867 0 12.6107 0H347.192C354.141 0 360 5.671 360 12.642V94.3392C360 101.308 354.141 107 347.192 107Z" fill="#A6A6A6"/>
<path d="M357.418 94.3419C357.418 100.002 352.848 104.587 347.194 104.587H12.6104C6.95971 104.587 2.37305 100.002 2.37305 94.3419V12.6394C2.37305 6.98174 6.95971 2.38074 12.6104 2.38074H347.192C352.848 2.38074 357.416 6.98174 357.416 12.6394L357.418 94.3419Z" fill="black"/>
<path d="M80.3409 52.9222C80.2636 44.3007 87.3783 40.1063 87.7036 39.911C83.6743 34.018 77.4289 33.2128 75.2342 33.1486C69.9889 32.5949 64.9009 36.2971 62.2289 36.2971C59.5036 36.2971 55.3889 33.2021 50.9542 33.293C45.2476 33.3813 39.9089 36.6956 36.9809 41.8423C30.9382 52.3364 35.4449 67.7577 41.2343 76.2402C44.1303 80.3944 47.5143 85.0329 51.9436 84.8697C56.2769 84.6905 57.8956 82.0984 63.1249 82.0984C68.3063 82.0984 69.8262 84.8697 74.3436 84.7654C78.9943 84.6905 81.9222 80.5924 84.7169 76.4007C88.0636 71.6392 89.4076 66.9499 89.4609 66.7091C89.3516 66.6717 80.4289 63.2557 80.3409 52.9222Z" fill="white"/>
<path d="M71.8071 27.5685C74.1378 24.6448 75.7325 20.667 75.2898 16.6305C71.9165 16.7803 67.6978 18.9711 65.2685 21.8307C63.1191 24.3505 61.1991 28.4807 61.6951 32.3648C65.4845 32.6484 69.3751 30.4468 71.8071 27.5685Z" fill="white"/>
<path d="M143.054 84.2732H136.998L133.68 73.8166H122.15L118.99 84.2732H113.094L124.518 48.6743H131.574L143.054 84.2732ZM132.68 69.4296L129.68 60.134C129.363 59.1843 128.768 56.948 127.891 53.4277H127.784C127.435 54.9418 126.872 57.1781 126.099 60.134L123.152 69.4296H132.68V69.4296Z" fill="white"/>
<path d="M172.433 71.1229C172.433 75.4885 171.257 78.9392 168.905 81.4725C166.798 83.7275 164.182 84.8537 161.059 84.8537C157.689 84.8537 155.267 83.6392 153.793 81.2103H153.686V94.7324H148.001V67.0542C148.001 64.3097 147.929 61.4929 147.79 58.6039H152.79L153.107 62.6726H153.214C155.11 59.607 157.987 58.0769 161.849 58.0769C164.867 58.0769 167.387 59.2726 169.403 61.6668C171.425 64.0636 172.433 67.2147 172.433 71.1229ZM166.641 71.3315C166.641 68.8331 166.081 66.7733 164.955 65.1523C163.726 63.4617 162.075 62.6164 160.006 62.6164C158.603 62.6164 157.329 63.0872 156.19 64.0154C155.049 64.9517 154.302 66.1741 153.953 67.6882C153.777 68.3944 153.689 68.9722 153.689 69.4269V73.7069C153.689 75.5741 154.259 77.1497 155.401 78.4363C156.542 79.723 158.025 80.365 159.849 80.365C161.99 80.365 163.657 79.5358 164.849 77.8826C166.043 76.2268 166.641 74.044 166.641 71.3315Z" fill="white"/>
<path d="M201.865 71.1229C201.865 75.4885 200.689 78.9392 198.334 81.4725C196.23 83.7275 193.614 84.8537 190.491 84.8537C187.121 84.8537 184.699 83.6392 183.227 81.2103H183.121V94.7324H177.435V67.0542C177.435 64.3097 177.363 61.4929 177.225 58.6039H182.225L182.542 62.6726H182.649C184.542 59.607 187.419 58.0769 191.283 58.0769C194.299 58.0769 196.819 59.2726 198.841 61.6668C200.854 64.0636 201.865 67.2147 201.865 71.1229ZM196.073 71.3315C196.073 68.8331 195.51 66.7733 194.385 65.1523C193.155 63.4617 191.51 62.6164 189.438 62.6164C188.033 62.6164 186.761 63.0872 185.619 64.0154C184.478 64.9517 183.734 66.1741 183.385 67.6882C183.211 68.3944 183.121 68.9722 183.121 69.4269V73.7069C183.121 75.5741 183.691 77.1497 184.827 78.4363C185.969 79.7203 187.451 80.365 189.281 80.365C191.422 80.365 193.089 79.5358 194.281 77.8826C195.475 76.2268 196.073 74.044 196.073 71.3315Z" fill="white"/>
<path d="M234.771 74.2901C234.771 77.3182 233.723 79.7818 231.619 81.6838C229.307 83.7622 226.088 84.8002 221.952 84.8002C218.134 84.8002 215.072 84.0618 212.755 82.5826L214.072 77.8291C216.568 79.3431 219.307 80.1028 222.291 80.1028C224.432 80.1028 226.099 79.616 227.296 78.6476C228.488 77.6793 229.083 76.3793 229.083 74.7582C229.083 73.3137 228.592 72.0966 227.608 71.1095C226.63 70.1224 224.995 69.2049 222.712 68.3569C216.499 66.0324 213.395 62.6271 213.395 58.1491C213.395 55.2227 214.483 52.8232 216.662 50.956C218.832 49.0862 221.728 48.1526 225.35 48.1526C228.579 48.1526 231.262 48.7171 233.403 49.8432L231.982 54.4924C229.982 53.401 227.72 52.8553 225.19 52.8553C223.19 52.8553 221.627 53.3502 220.507 54.3346C219.56 55.2147 219.086 56.2873 219.086 57.558C219.086 58.965 219.627 60.1286 220.715 61.0435C221.662 61.8888 223.382 62.8036 225.878 63.7907C228.931 65.0239 231.174 66.4657 232.616 68.1189C234.054 69.7667 234.771 71.8291 234.771 74.2901Z" fill="white"/>
<path d="M253.568 62.8839H247.302V75.3467C247.302 78.5166 248.406 80.1002 250.619 80.1002C251.635 80.1002 252.478 80.0119 253.144 79.8353L253.302 84.1662C252.182 84.5861 250.707 84.7975 248.88 84.7975C246.635 84.7975 244.88 84.11 243.614 82.7377C242.352 81.3628 241.718 79.0569 241.718 75.8175V62.8785H237.984V58.5985H241.718V53.8985L247.302 52.2079V58.5985H253.568V62.8839Z" fill="white"/>
<path d="M281.843 71.2272C281.843 75.1728 280.718 78.4123 278.473 80.9455C276.118 83.5536 272.993 84.8537 269.097 84.8537C265.342 84.8537 262.353 83.6044 260.123 81.106C257.894 78.6075 256.779 75.4537 256.779 71.6525C256.779 67.6748 257.926 64.4167 260.227 61.8834C262.523 59.3475 265.622 58.0796 269.518 58.0796C273.273 58.0796 276.294 59.3288 278.574 61.8299C280.755 64.2562 281.843 67.3886 281.843 71.2272ZM275.945 71.4118C275.945 69.0444 275.441 67.0141 274.419 65.3208C273.227 63.2718 271.523 62.2499 269.315 62.2499C267.03 62.2499 265.294 63.2744 264.102 65.3208C263.081 67.0168 262.577 69.0792 262.577 71.5188C262.577 73.8862 263.081 75.9165 264.102 77.6071C265.331 79.6561 267.049 80.678 269.265 80.678C271.435 80.678 273.139 79.6347 274.369 77.5536C275.417 75.8282 275.945 73.7765 275.945 71.4118Z" fill="white"/>
<path d="M300.323 63.6195C299.761 63.5152 299.161 63.4617 298.531 63.4617C296.531 63.4617 294.985 64.2187 293.897 65.7354C292.95 67.0729 292.475 68.7635 292.475 70.8046V84.2732H286.793L286.846 66.6877C286.846 63.7292 286.774 61.0355 286.633 58.6066H291.585L291.793 63.5179H291.95C292.55 61.8299 293.497 60.471 294.793 59.4519C296.059 58.5343 297.427 58.0769 298.902 58.0769C299.427 58.0769 299.902 58.1144 300.323 58.1812V63.6195Z" fill="white"/>
<path d="M325.75 70.2241C325.75 71.2459 325.683 72.1073 325.542 72.8108H308.486C308.553 75.3467 309.377 77.2861 310.961 78.6236C312.398 79.8193 314.257 80.4185 316.539 80.4185C319.065 80.4185 321.369 80.0146 323.441 79.204L324.331 83.163C321.91 84.2223 319.051 84.7493 315.753 84.7493C311.785 84.7493 308.67 83.5777 306.403 81.237C304.142 78.8964 303.009 75.7533 303.009 71.8103C303.009 67.9396 304.062 64.7162 306.171 62.1456C308.379 59.401 311.363 58.0287 315.118 58.0287C318.806 58.0287 321.598 59.401 323.494 62.1456C324.995 64.3257 325.75 67.0221 325.75 70.2241ZM320.329 68.7448C320.366 67.0542 319.995 65.5936 319.225 64.3605C318.241 62.7742 316.729 61.9824 314.694 61.9824C312.835 61.9824 311.323 62.7555 310.169 64.307C309.222 65.5401 308.659 67.0194 308.486 68.7421H320.329V68.7448Z" fill="white"/>
<path d="M130.8 26.7741C130.8 29.9225 129.859 32.2926 127.979 33.8842C126.238 35.3528 123.763 36.0884 120.558 36.0884C118.968 36.0884 117.608 36.0189 116.47 35.8798V18.6768C117.955 18.4361 119.555 18.313 121.283 18.313C124.336 18.313 126.638 18.9791 128.19 20.3113C129.928 21.8173 130.8 23.9707 130.8 26.7741ZM127.854 26.8516C127.854 24.8106 127.315 23.2457 126.238 22.1543C125.16 21.0656 123.587 20.5199 121.515 20.5199C120.635 20.5199 119.886 20.5788 119.264 20.7018V33.7799C119.608 33.8334 120.238 33.8575 121.152 33.8575C123.291 33.8575 124.942 33.2609 126.104 32.0679C127.267 30.8748 127.854 29.1361 127.854 26.8516Z" fill="white"/>
<path d="M146.424 29.524C146.424 31.4634 145.872 33.0523 144.768 34.2989C143.611 35.5802 142.078 36.2195 140.163 36.2195C138.318 36.2195 136.848 35.6069 135.752 34.3764C134.659 33.1486 134.112 31.5998 134.112 29.7326C134.112 27.7799 134.675 26.1776 135.806 24.9337C136.936 23.6898 138.456 23.0665 140.371 23.0665C142.216 23.0665 143.699 23.6791 144.822 24.9069C145.888 26.1 146.424 27.6408 146.424 29.524ZM143.526 29.6149C143.526 28.4513 143.275 27.4535 142.776 26.6216C142.19 25.6158 141.355 25.1129 140.27 25.1129C139.147 25.1129 138.294 25.6158 137.707 26.6216C137.206 27.4535 136.958 28.4674 136.958 29.6658C136.958 30.8294 137.208 31.8272 137.707 32.6591C138.312 33.6649 139.155 34.1678 140.243 34.1678C141.31 34.1678 142.147 33.6569 142.75 32.6323C143.267 31.7844 143.526 30.7786 143.526 29.6149Z" fill="white"/>
<path d="M167.373 23.3233L163.44 35.9333H160.88L159.251 30.4575C158.837 29.0906 158.501 27.7317 158.24 26.3835H158.189C157.947 27.7692 157.611 29.1254 157.179 30.4575L155.448 35.9333H152.859L149.16 23.3233H152.032L153.453 29.318C153.797 30.7357 154.08 32.0866 154.307 33.3653H154.357C154.565 32.3113 154.909 30.9685 155.395 29.3447L157.179 23.326H159.456L161.165 29.2163C161.579 30.6528 161.915 32.0358 162.173 33.3679H162.251C162.44 32.0706 162.725 30.6876 163.104 29.2163L164.629 23.326H167.373V23.3233Z" fill="white"/>
<path d="M181.861 35.9333H179.067V28.7108C179.067 26.4852 178.224 25.3724 176.533 25.3724C175.704 25.3724 175.035 25.6773 174.515 26.2899C174 26.9025 173.739 27.6247 173.739 28.4513V35.9306H170.944V26.9266C170.944 25.8191 170.909 24.618 170.843 23.318H173.299L173.429 25.2895H173.507C173.832 24.6769 174.317 24.1713 174.955 23.7674C175.712 23.2966 176.56 23.0585 177.488 23.0585C178.661 23.0585 179.637 23.4384 180.413 24.2007C181.379 25.1343 181.861 26.528 181.861 28.3791V35.9333V35.9333Z" fill="white"/>
<path d="M189.568 35.9333H186.776V17.5373H189.568V35.9333Z" fill="white"/>
<path d="M206.022 29.524C206.022 31.4634 205.47 33.0523 204.366 34.2989C203.209 35.5802 201.673 36.2195 199.761 36.2195C197.913 36.2195 196.443 35.6069 195.35 34.3764C194.257 33.1486 193.71 31.5998 193.71 29.7326C193.71 27.7799 194.273 26.1776 195.403 24.9337C196.534 23.6898 198.054 23.0665 199.966 23.0665C201.814 23.0665 203.294 23.6791 204.419 24.9069C205.486 26.1 206.022 27.6408 206.022 29.524ZM203.121 29.6149C203.121 28.4513 202.87 27.4535 202.371 26.6216C201.787 25.6158 200.95 25.1129 199.867 25.1129C198.742 25.1129 197.889 25.6158 197.305 26.6216C196.803 27.4535 196.555 28.4674 196.555 29.6658C196.555 30.8294 196.806 31.8272 197.305 32.6591C197.91 33.6649 198.753 34.1678 199.841 34.1678C200.907 34.1678 201.742 33.6569 202.345 32.6323C202.865 31.7844 203.121 30.7786 203.121 29.6149Z" fill="white"/>
<path d="M219.548 35.9333H217.038L216.83 34.4808H216.753C215.894 35.639 214.67 36.2195 213.081 36.2195C211.894 36.2195 210.934 35.837 210.212 35.0773C209.556 34.3871 209.228 33.5285 209.228 32.5093C209.228 30.9685 209.868 29.7942 211.156 28.981C212.441 28.1678 214.249 27.7692 216.577 27.7879V27.5525C216.577 25.8913 215.708 25.0621 213.966 25.0621C212.726 25.0621 211.633 25.3751 210.689 25.9957L210.121 24.1553C211.289 23.4303 212.732 23.0665 214.433 23.0665C217.718 23.0665 219.366 24.8053 219.366 28.2828V32.9266C219.366 34.1865 219.428 35.1896 219.548 35.9333ZM216.646 31.5998V29.6551C213.564 29.6016 212.022 30.4495 212.022 32.1963C212.022 32.8544 212.198 33.3466 212.558 33.6756C212.918 34.0046 213.377 34.1678 213.924 34.1678C214.537 34.1678 215.11 33.9725 215.633 33.5846C216.158 33.1941 216.481 32.6992 216.601 32.092C216.63 31.9556 216.646 31.7897 216.646 31.5998Z" fill="white"/>
<path d="M235.427 35.9333H232.947L232.816 33.9083H232.739C231.947 35.4491 230.597 36.2195 228.701 36.2195C227.187 36.2195 225.925 35.623 224.925 34.4299C223.925 33.2369 223.427 31.688 223.427 29.7861C223.427 27.7451 223.968 26.0919 225.056 24.8293C226.109 23.6523 227.4 23.0638 228.936 23.0638C230.624 23.0638 231.805 23.6336 232.477 24.7758H232.531V17.5373H235.328V32.536C235.328 33.7638 235.36 34.8954 235.427 35.9333ZM232.531 30.6154V28.5128C232.531 28.149 232.504 27.8548 232.453 27.6301C232.296 26.956 231.957 26.3889 231.443 25.9314C230.923 25.474 230.296 25.244 229.573 25.244C228.531 25.244 227.715 25.6586 227.115 26.4905C226.52 27.3224 226.219 28.3844 226.219 29.6818C226.219 30.9283 226.504 31.9395 227.077 32.7179C227.683 33.5472 228.499 33.9618 229.52 33.9618C230.437 33.9618 231.171 33.6167 231.728 32.9239C232.267 32.2846 232.531 31.5142 232.531 30.6154Z" fill="white"/>
<path d="M259.329 29.524C259.329 31.4634 258.777 33.0523 257.673 34.2989C256.515 35.5802 254.985 36.2195 253.067 36.2195C251.225 36.2195 249.755 35.6069 248.657 34.3764C247.563 33.1486 247.017 31.5998 247.017 29.7326C247.017 27.7799 247.579 26.1776 248.71 24.9337C249.841 23.6898 251.361 23.0665 253.278 23.0665C255.121 23.0665 256.606 23.6791 257.726 24.9069C258.793 26.1 259.329 27.6408 259.329 29.524ZM256.433 29.6149C256.433 28.4513 256.182 27.4535 255.683 26.6216C255.094 25.6158 254.262 25.1129 253.174 25.1129C252.054 25.1129 251.201 25.6158 250.611 26.6216C250.11 27.4535 249.862 28.4674 249.862 29.6658C249.862 30.8294 250.113 31.8272 250.611 32.6591C251.217 33.6649 252.059 34.1678 253.147 34.1678C254.214 34.1678 255.054 33.6569 255.657 32.6323C256.171 31.7844 256.433 30.7786 256.433 29.6149Z" fill="white"/>
<path d="M274.355 35.9333H271.563V28.7108C271.563 26.4852 270.72 25.3724 269.027 25.3724C268.198 25.3724 267.528 25.6773 267.011 26.2899C266.494 26.9025 266.235 27.6247 266.235 28.4513V35.9306H263.438V26.9266C263.438 25.8191 263.406 24.618 263.339 23.318H265.792L265.923 25.2895H266C266.328 24.6769 266.814 24.1713 267.448 23.7674C268.208 23.2966 269.054 23.0585 269.984 23.0585C271.155 23.0585 272.131 23.4384 272.907 24.2007C273.875 25.1343 274.355 26.528 274.355 28.3791V35.9333V35.9333Z" fill="white"/>
<path d="M293.163 25.4232H290.085V31.5489C290.085 33.1058 290.632 33.8842 291.715 33.8842C292.216 33.8842 292.632 33.8414 292.96 33.7531L293.032 35.8798C292.48 36.0884 291.755 36.1927 290.861 36.1927C289.757 36.1927 288.899 35.8557 288.277 35.1816C287.653 34.5075 287.344 33.3733 287.344 31.7817V25.4232H285.507V23.3233H287.344V21.0121L290.083 20.1829V23.3206H293.16V25.4232H293.163Z" fill="white"/>
<path d="M307.957 35.9333H305.16V28.7643C305.16 26.5039 304.317 25.3724 302.629 25.3724C301.333 25.3724 300.448 26.0277 299.963 27.3385C299.88 27.614 299.832 27.9511 299.832 28.347V35.9306H297.04V17.5373H299.832V25.137H299.885C300.765 23.754 302.027 23.0638 303.661 23.0638C304.819 23.0638 305.776 23.4437 306.536 24.2061C307.483 25.1557 307.957 26.5681 307.957 28.4352V35.9333V35.9333Z" fill="white"/>
<path d="M323.219 29.0318C323.219 29.5347 323.182 29.9573 323.115 30.3024H314.734C314.771 31.5489 315.171 32.4986 315.947 33.1566C316.656 33.7451 317.571 34.0394 318.691 34.0394C319.931 34.0394 321.062 33.8414 322.08 33.4428L322.518 35.3902C321.326 35.9092 319.923 36.1687 318.299 36.1687C316.352 36.1687 314.819 35.5936 313.71 34.4433C312.595 33.2931 312.043 31.7496 312.043 29.8129C312.043 27.911 312.558 26.3273 313.595 25.0647C314.678 23.7165 316.142 23.0424 317.99 23.0424C319.798 23.0424 321.171 23.7165 322.099 25.0647C322.848 26.1347 323.219 27.4589 323.219 29.0318ZM320.552 28.3068C320.574 27.4749 320.39 26.758 320.011 26.1535C319.526 25.3751 318.787 24.9845 317.787 24.9845C316.875 24.9845 316.131 25.3643 315.563 26.1267C315.099 26.7339 314.824 27.4589 314.734 28.3068H320.552Z" fill="white"/>
</g>
<defs>
<clipPath id="clip0_220_200">
<rect width="360" height="107" fill="white"/>
</clipPath>
</defs>
</svg>
