<svg width="362" height="107" viewBox="0 0 362 107" fill="none" xmlns="http://www.w3.org/2000/svg">
<g clip-path="url(#clip0_220_232)">
<path fill-rule="evenodd" clip-rule="evenodd" d="M348.588 107H13.4123C6.02024 107 0 100.97 0 93.625V13.375C0 6.00374 6.02024 0 13.4123 0H348.588C355.973 0 362 6.00374 362 13.375V93.625C362 100.97 355.973 107 348.588 107Z" fill="black"/>
<path fill-rule="evenodd" clip-rule="evenodd" d="M348.588 2.14133C354.788 2.14133 359.862 7.19115 359.862 13.375V93.625C359.862 99.8089 354.821 104.859 348.588 104.859H13.4123C7.2123 104.859 2.13772 99.8089 2.13772 93.625V13.375C2.13772 7.19115 7.179 2.14133 13.4123 2.14133C13.4123 2.14133 348.588 2.14133 348.588 2.14133ZM348.588 0H13.4123C6.02024 0 0 6.03042 0 13.375V93.625C0 100.996 6.02024 107 13.4123 107H348.588C355.973 107 362 100.996 362 93.625V13.375C362 6.03042 355.973 0 348.588 0Z" fill="#A6A6A6"/>
<path d="M190.703 35.3954C188.286 35.3954 186.248 34.5482 184.636 32.8805C183.038 31.2595 182.145 29.0247 182.185 26.7433C182.185 24.3085 183.011 22.2472 184.636 20.6128C186.241 18.9451 188.279 18.0979 190.696 18.0979C193.087 18.0979 195.125 18.9451 196.763 20.6128C198.388 22.3005 199.214 24.3618 199.214 26.7433C199.187 29.1848 198.361 31.2461 196.763 32.8738C195.158 34.5548 193.12 35.3954 190.703 35.3954ZM118.773 35.3954C116.409 35.3954 114.358 34.5615 112.68 32.9138C111.015 31.2728 110.169 29.1982 110.169 26.75C110.169 24.3018 111.015 22.2272 112.68 20.5861C114.325 18.9385 116.376 18.1046 118.773 18.1046C119.945 18.1046 121.084 18.3381 122.176 18.8117C123.248 19.272 124.121 19.8991 124.767 20.6662L124.927 20.8597L123.122 22.6341L122.935 22.414C121.916 21.1999 120.551 20.6062 118.746 20.6062C117.135 20.6062 115.73 21.1799 114.571 22.3139C113.405 23.4546 112.813 24.9489 112.813 26.7567C112.813 28.5645 113.405 30.0587 114.571 31.1994C115.73 32.3335 117.135 32.9072 118.746 32.9072C120.465 32.9072 121.91 32.3335 123.035 31.1994C123.701 30.5323 124.114 29.5984 124.261 28.4177H118.473V25.9228H126.745L126.778 26.1496C126.838 26.5699 126.898 27.0035 126.898 27.4037C126.898 29.7052 126.205 31.5663 124.833 32.9405C123.275 34.5682 121.237 35.3954 118.773 35.3954ZM214.411 35.0418H211.86L204.049 22.5207L204.115 24.7754V35.0352H201.565V18.4582H204.475L204.555 18.5849L211.9 30.3789L211.834 28.1308V18.4582H214.411V35.0418V35.0418ZM171.537 35.0418H168.953V20.953H164.471V18.4582H176.012V20.953H171.53V35.0418H171.537ZM162.367 35.0418H159.789V18.4582H162.367V35.0418ZM147.882 35.0418H145.305V20.953H140.823V18.4582H152.364V20.953H147.882V35.0418ZM139.191 35.0151H129.308V18.4582H139.191V20.953H131.892V25.5025H138.479V27.9707H131.892V32.5202H139.191V35.0151ZM186.527 31.1661C187.679 32.3201 189.078 32.9005 190.703 32.9005C192.374 32.9005 193.74 32.3335 194.878 31.1661C196.011 30.032 196.583 28.5444 196.583 26.75C196.583 24.9555 196.011 23.4613 194.885 22.3339C193.733 21.1799 192.328 20.5995 190.71 20.5995C189.038 20.5995 187.673 21.1665 186.541 22.3339C185.409 23.4679 184.836 24.9555 184.836 26.75C184.836 28.5444 185.402 30.0387 186.527 31.1661Z" fill="white"/>
<path fill-rule="evenodd" clip-rule="evenodd" d="M181.946 58.1962C175.653 58.1962 170.551 62.9792 170.551 69.5767C170.551 76.1141 175.686 80.9571 181.946 80.9571C188.239 80.9571 193.34 76.1408 193.34 69.5767C193.34 62.9792 188.239 58.1962 181.946 58.1962ZM181.946 76.4476C178.503 76.4476 175.539 73.5925 175.539 69.55C175.539 65.4474 178.51 62.6524 181.946 62.6524C185.389 62.6524 188.352 65.4474 188.352 69.55C188.359 73.6192 185.389 76.4476 181.946 76.4476ZM157.086 58.1962C150.792 58.1962 145.691 62.9792 145.691 69.5767C145.691 76.1141 150.826 80.9571 157.086 80.9571C163.379 80.9571 168.48 76.1408 168.48 69.5767C168.48 62.9792 163.372 58.1962 157.086 58.1962ZM157.086 76.4476C153.643 76.4476 150.679 73.5925 150.679 69.55C150.679 65.4474 153.649 62.6524 157.086 62.6524C160.529 62.6524 163.492 65.4474 163.492 69.55C163.492 73.6192 160.529 76.4476 157.086 76.4476ZM127.504 61.6717V66.4881H139.045C138.692 69.1898 137.8 71.1843 136.434 72.5519C134.743 74.2462 132.132 76.0874 127.531 76.0874C120.438 76.0874 114.891 70.3505 114.891 63.2461C114.891 56.1416 120.438 50.4047 127.531 50.4047C131.36 50.4047 134.15 51.919 136.221 53.8535L139.631 50.4381C136.754 47.6764 132.925 45.5617 127.557 45.5617C117.828 45.5617 109.663 53.5 109.663 63.2194C109.663 72.9654 117.821 80.877 127.557 80.877C132.812 80.877 136.754 79.156 139.871 75.914C143.047 72.732 144.053 68.2425 144.053 64.6202C144.053 63.4929 143.966 62.4789 143.787 61.6184H127.497C127.504 61.6117 127.504 61.6717 127.504 61.6717ZM248.501 65.4207C247.549 62.8658 244.672 58.1696 238.772 58.1696C232.925 58.1696 228.063 62.7791 228.063 69.55C228.063 75.9406 232.871 80.9304 239.338 80.9304C244.532 80.9304 247.556 77.7484 248.801 75.8806L244.945 73.2923C243.667 75.1935 241.889 76.4409 239.365 76.4409C236.814 76.4409 235.029 75.2802 233.844 72.9921L249.034 66.6882C249.034 66.6949 248.501 65.4207 248.501 65.4207ZM233.011 69.2231C232.891 64.827 236.421 62.5923 238.945 62.5923C240.936 62.5923 242.594 63.5729 243.16 65.0005L233.011 69.2231ZM220.671 80.25H225.659V46.8158H220.671V80.25ZM212.48 60.7245H212.3C211.175 59.3837 209.037 58.1696 206.307 58.1696C200.639 58.1696 195.418 63.166 195.418 69.5833C195.418 75.974 200.613 80.9104 206.307 80.9104C209.004 80.9104 211.175 79.6896 212.3 78.3221H212.48V79.9565C212.48 84.2992 210.162 86.6406 206.426 86.6406C203.37 86.6406 201.472 84.4393 200.699 82.5981L196.364 84.4126C197.609 87.4145 200.932 91.1301 206.42 91.1301C212.267 91.1301 217.222 87.6813 217.222 79.2694V58.85H212.507V60.7245C212.513 60.7245 212.48 60.7245 212.48 60.7245ZM206.753 76.4476C203.31 76.4476 200.433 73.5658 200.433 69.5833C200.433 65.5675 203.31 62.659 206.753 62.659C210.162 62.659 212.806 65.6009 212.806 69.5833C212.84 73.5658 210.169 76.4476 206.753 76.4476ZM271.856 46.8158H259.929V80.25H264.917V67.5888H271.863C277.384 67.5888 282.811 63.5796 282.811 57.2156C282.811 50.8517 277.404 46.8158 271.856 46.8158ZM272.003 62.9192H264.911V51.4454H272.003C275.739 51.4454 277.85 54.534 277.85 57.1823C277.85 59.8039 275.712 62.9192 272.003 62.9192ZM302.803 58.1362C299.181 58.1362 295.445 59.7439 293.9 63.2461L298.322 65.0872C299.274 63.2461 301.019 62.619 302.863 62.619C305.447 62.619 308.058 64.1666 308.118 66.9284V67.2819C307.225 66.7749 305.267 66.0011 302.923 66.0011C298.148 66.0011 293.307 68.6161 293.307 73.5191C293.307 78.0086 297.223 80.8904 301.585 80.8904C304.934 80.8904 306.779 79.3761 307.931 77.6217H308.111V80.21H312.919V67.402C312.919 61.4383 308.497 58.1362 302.803 58.1362ZM302.177 76.4476C300.546 76.4476 298.262 75.6471 298.262 73.5925C298.262 71.0042 301.112 70.0236 303.543 70.0236C305.74 70.0236 306.779 70.4972 308.084 71.151C307.725 74.1529 305.194 76.4209 302.177 76.4476ZM330.461 58.85L324.733 73.3524H324.554L318.62 58.85H313.252L322.156 79.1226L317.081 90.3896H322.276L335.975 58.85H330.461ZM285.562 80.25H290.55V46.8158H285.562V80.25Z" fill="white"/>
<path fill-rule="evenodd" clip-rule="evenodd" d="M27.8632 20.1526C27.0907 20.9864 26.6445 22.2605 26.6445 23.9282V83.0784C26.6445 84.7461 27.0907 86.0203 27.8899 86.8208L28.0963 87.0009L61.181 53.8602V53.1198L28.0697 19.9724L27.8632 20.1526Z" fill="url(#paint0_linear_220_232)"/>
<path fill-rule="evenodd" clip-rule="evenodd" d="M72.1892 64.9405L61.1543 53.8869V53.1131L72.1892 42.0595L72.4289 42.2063L85.4816 49.6376C89.2177 51.7456 89.2177 55.2277 85.4816 57.3624L72.4289 64.7937L72.1892 64.9405Z" fill="url(#paint1_linear_220_232)"/>
<path fill-rule="evenodd" clip-rule="evenodd" d="M72.429 64.7937L61.1544 53.5L27.8633 86.8474C29.082 88.1549 31.1265 88.3017 33.4107 87.0276L72.429 64.7937Z" fill="url(#paint2_linear_220_232)"/>
<path fill-rule="evenodd" clip-rule="evenodd" d="M72.429 42.2063L33.4107 20.0058C31.1265 18.6983 29.0753 18.8784 27.8633 20.1859L61.1544 53.5L72.429 42.2063Z" fill="url(#paint3_linear_220_232)"/>
<path opacity="0.2" fill-rule="evenodd" clip-rule="evenodd" d="M72.19 64.5536L33.438 86.6073C31.2737 87.8548 29.3424 87.768 28.0971 86.634L27.8906 86.8408L28.0971 87.0209C29.3424 88.1483 31.2737 88.2417 33.438 86.9942L72.4564 64.7937L72.19 64.5536Z" fill="black"/>
<path opacity="0.12" fill-rule="evenodd" clip-rule="evenodd" d="M85.482 56.9755L72.1562 64.5536L72.396 64.7937L85.4487 57.3624C87.3201 56.2951 88.2391 54.8942 88.2391 53.5C88.1259 54.7808 87.1735 55.9949 85.482 56.9755Z" fill="black"/>
<path opacity="0.25" fill-rule="evenodd" clip-rule="evenodd" d="M33.4106 20.3927L85.4817 50.0245C87.1732 50.9784 88.1255 52.2259 88.272 53.5C88.272 52.1058 87.353 50.7049 85.4817 49.6376L33.4106 20.0058C29.6746 17.8644 26.6445 19.6522 26.6445 23.9282V24.3151C26.6445 20.0325 29.6746 18.278 33.4106 20.3927Z" fill="white"/>
</g>
<defs>
<linearGradient id="paint0_linear_220_232" x1="58.2133" y1="23.2901" x2="5.20556" y2="37.3902" gradientUnits="userSpaceOnUse">
<stop stop-color="#00A0FF"/>
<stop offset="0.00657" stop-color="#00A1FF"/>
<stop offset="0.2601" stop-color="#00BEFF"/>
<stop offset="0.5122" stop-color="#00D2FF"/>
<stop offset="0.7604" stop-color="#00DFFF"/>
<stop offset="1" stop-color="#00E3FF"/>
</linearGradient>
<linearGradient id="paint1_linear_220_232" x1="90.3537" y1="53.5001" x2="25.7365" y2="53.5001" gradientUnits="userSpaceOnUse">
<stop stop-color="#FFE000"/>
<stop offset="0.4087" stop-color="#FFBD00"/>
<stop offset="0.7754" stop-color="#FFA500"/>
<stop offset="1" stop-color="#FF9C00"/>
</linearGradient>
<linearGradient id="paint2_linear_220_232" x1="66.2983" y1="59.6454" x2="23.647" y2="131.31" gradientUnits="userSpaceOnUse">
<stop stop-color="#FF3A44"/>
<stop offset="1" stop-color="#C31162"/>
</linearGradient>
<linearGradient id="paint3_linear_220_232" x1="19.4802" y1="0.478259" x2="38.5087" y2="32.4847" gradientUnits="userSpaceOnUse">
<stop stop-color="#32A071"/>
<stop offset="0.0685" stop-color="#2DA771"/>
<stop offset="0.4762" stop-color="#15CF74"/>
<stop offset="0.8009" stop-color="#06E775"/>
<stop offset="1" stop-color="#00F076"/>
</linearGradient>
<clipPath id="clip0_220_232">
<rect width="362" height="107" fill="white"/>
</clipPath>
</defs>
</svg>
