<svg xmlns="http://www.w3.org/2000/svg" width="143" height="143" viewBox="0 0 143 143">
  <g id="Group_321" data-name="Group 321" transform="translate(-40 -806)">
    <g id="Group_320" data-name="Group 320" transform="translate(40 806)">
      <g id="Group_271" data-name="Group 271" transform="translate(0 0)">
        <g id="Rectangle_310" data-name="Rectangle 310" stroke="#fff" stroke-width="1">
          <rect width="143" height="143" rx="49" stroke="none"/>
          <rect x="0.5" y="0.5" width="142" height="142" rx="48.5" fill="none"/>
        </g>
        <g id="Group_161" data-name="Group 161" transform="translate(13.176 86.112) rotate(-90)">
          <path id="Exclusion_1" data-name="Exclusion 1" d="M12.8,25.6a12.908,12.908,0,0,1-2.583-.261,12.722,12.722,0,0,1-4.575-1.925,12.836,12.836,0,0,1-4.638-5.632,12.732,12.732,0,0,1-.745-2.4,12.925,12.925,0,0,1,0-5.16A12.715,12.715,0,0,1,2.186,5.644,12.837,12.837,0,0,1,7.818,1.006a12.722,12.722,0,0,1,2.4-.745,12.918,12.918,0,0,1,5.16,0,12.716,12.716,0,0,1,4.578,1.926A12.81,12.81,0,0,1,17.784,24.6a12.744,12.744,0,0,1-2.4.746A12.891,12.891,0,0,1,12.8,25.6ZM12.85,5.689a7.161,7.161,0,1,0,7.161,7.161A7.169,7.169,0,0,0,12.85,5.689Z" transform="translate(0 4.251)" fill="#fff" stroke="#fff" stroke-width="1"/>
          <path id="nfc" d="M12.18,23.316a1.343,1.343,0,0,1-1.324-1.571,28.587,28.587,0,0,0,.417-4.568,28.19,28.19,0,0,0-4.547-15.1A1.342,1.342,0,1,1,8.977.611a30.872,30.872,0,0,1,4.981,16.553v.027A31.254,31.254,0,0,1,13.5,22.2a1.342,1.342,0,0,1-1.321,1.113Zm-3.2,10.427a30.791,30.791,0,0,0,2.656-5.061,1.342,1.342,0,0,0-2.482-1.021A28.09,28.09,0,0,1,6.727,32.28a1.342,1.342,0,1,0,2.25,1.463Zm-6.52-3.5A23.955,23.955,0,0,0,6.51,17.194q0-.018,0-.035A23.953,23.953,0,0,0,2.457,4.108,1.342,1.342,0,1,0,.227,5.6a21.275,21.275,0,0,1,3.6,11.575,21.275,21.275,0,0,1-3.6,11.575,1.342,1.342,0,0,0,2.23,1.494Z" transform="translate(28.516)" fill="#fff" stroke="#fff" stroke-width="1"/>
        </g>
        <path id="Path_4076" data-name="Path 4076" d="M24.344-37.1h-4.2a.888.888,0,0,0-.909.6L14.154-24.433,9.075-36.5a.888.888,0,0,0-.909-.6h-4.2a.71.71,0,0,0-.784.784v20.38a.71.71,0,0,0,.784.784H7.413a.71.71,0,0,0,.784-.784V-28.607l3.982,9.442a.888.888,0,0,0,.909.6H15.22a.888.888,0,0,0,.909-.6l3.982-9.442v12.671a.71.71,0,0,0,.784.784h3.449a.71.71,0,0,0,.784-.784v-20.38A.71.71,0,0,0,24.344-37.1ZM41.275-19.981H33.907V-23.9h6.428a.71.71,0,0,0,.784-.784v-3.135a.71.71,0,0,0-.784-.784H33.907v-3.668h7.211a.71.71,0,0,0,.784-.784v-3.261a.71.71,0,0,0-.784-.784H29.674a.71.71,0,0,0-.784.784v20.38a.71.71,0,0,0,.784.784h11.6a.71.71,0,0,0,.784-.784V-19.2A.71.71,0,0,0,41.275-19.981ZM56.482-36.316v11.444L48.988-36.6a1.089,1.089,0,0,0-.972-.5H45.665a.71.71,0,0,0-.784.784v20.38a.71.71,0,0,0,.784.784h3.449a.71.71,0,0,0,.784-.784V-27.38l7.494,11.726a1.089,1.089,0,0,0,.972.5h2.352a.71.71,0,0,0,.784-.784v-20.38a.71.71,0,0,0-.784-.784H57.266A.71.71,0,0,0,56.482-36.316ZM73.1-14.713c4.515,0,8.152-2.508,8.152-7.211V-36.316a.71.71,0,0,0-.784-.784H77.019a.71.71,0,0,0-.784.784v13.953c0,1.662-.784,2.759-3.135,2.759s-3.135-1.1-3.135-2.759V-36.316a.71.71,0,0,0-.784-.784H65.731a.71.71,0,0,0-.784.784v14.392C64.948-17.222,68.585-14.713,73.1-14.713Z" transform="translate(46.028 99.749)" fill="#fff" stroke="#fff" stroke-width="1"/>
      </g>
    </g>
  </g>
</svg>
