<svg xmlns="http://www.w3.org/2000/svg" width="306.467" height="35.232" viewBox="0 0 306.467 35.232">
  <path id="sh_g" d="M13.392.672C19.824.672,25.2-2.688,25.2-9.408c0-7.392-6.528-9.12-11.328-10.8-2.784-1.008-4.752-1.968-4.752-3.984,0-1.392,1.1-2.592,3.5-2.592,2.208,0,3.456.816,3.84,2.592.144.768.528,1.152,1.248,1.152h5.28a1.082,1.082,0,0,0,1.2-1.248c-.576-6.96-5.952-9.984-11.568-9.984-5.712,0-11.184,3.36-11.184,10.08,0,7.344,6,9.312,10.752,10.944,2.928,1.008,5.328,1.872,5.328,3.84,0,1.392-1.008,2.592-4.128,2.592-2.832,0-4.272-.864-4.656-2.592-.144-.768-.528-1.152-1.248-1.152H2.208a1.082,1.082,0,0,0-1.2,1.248C1.584-2.352,7.1.672,13.392.672ZM52.8-33.6H47.52a1.088,1.088,0,0,0-1.2,1.2v11.424h-9.6V-32.4a1.088,1.088,0,0,0-1.2-1.2H30.24a1.088,1.088,0,0,0-1.2,1.2V-1.2A1.088,1.088,0,0,0,30.24,0h5.28a1.088,1.088,0,0,0,1.2-1.2V-13.584h9.6V-1.2A1.088,1.088,0,0,0,47.52,0H52.8A1.088,1.088,0,0,0,54-1.2V-32.4A1.088,1.088,0,0,0,52.8-33.6ZM75.792.672A17.322,17.322,0,0,0,93.264-16.8,17.322,17.322,0,0,0,75.792-34.272,17.322,17.322,0,0,0,58.32-16.8,17.322,17.322,0,0,0,75.792.672Zm0-7.488A9.557,9.557,0,0,1,66-16.8a9.557,9.557,0,0,1,9.792-9.984A9.557,9.557,0,0,1,85.584-16.8,9.557,9.557,0,0,1,75.792-6.816ZM113.616.672A17.322,17.322,0,0,0,131.088-16.8a17.322,17.322,0,0,0-17.472-17.472A17.322,17.322,0,0,0,96.144-16.8,17.322,17.322,0,0,0,113.616.672Zm0-7.488a9.557,9.557,0,0,1-9.792-9.984,9.557,9.557,0,0,1,9.792-9.984,9.557,9.557,0,0,1,9.792,9.984A9.557,9.557,0,0,1,113.616-6.816Zm40.512-19.392a1.088,1.088,0,0,0,1.2-1.2V-32.4a1.088,1.088,0,0,0-1.2-1.2h-17.52a1.088,1.088,0,0,0-1.2,1.2V-1.2a1.088,1.088,0,0,0,1.2,1.2h5.28a1.088,1.088,0,0,0,1.2-1.2V-11.856h10.8a1.088,1.088,0,0,0,1.2-1.2v-4.992a1.088,1.088,0,0,0-1.2-1.2h-10.8v-6.96Zm49.456,10.032h-13.92a.431.431,0,0,0-.48.48v.672a.431.431,0,0,0,.48.48H202.3v2.864C201.7-4.72,195.5-1.152,188.96-1.152c-9.536,0-15.872-6.992-15.872-15.648A15.282,15.282,0,0,1,188.64-32.448a14.351,14.351,0,0,1,13.342,8.4.58.58,0,0,0,.569.365h.9c.344,0,.507-.217.384-.552a16.171,16.171,0,0,0-15.193-9.879A17,17,0,0,0,171.328-16.8c0,9.568,7.136,17.312,17.632,17.312,5.556,0,10.96-2.382,13.344-7.235V-.48a.431.431,0,0,0,.48.48h.8a.431.431,0,0,0,.48-.48V-15.7a.431.431,0,0,0-.48-.48ZM212.128,0h.736a.438.438,0,0,0,.48-.48v-33.6a.438.438,0,0,0-.48-.48h-.736a.438.438,0,0,0-.48.48V-.48A.438.438,0,0,0,212.128,0Zm20.016.512A12.409,12.409,0,0,0,244.7-12a12.409,12.409,0,0,0-12.56-12.512A12.409,12.409,0,0,0,219.584-12,12.409,12.409,0,0,0,232.144.512Zm0-1.6A10.764,10.764,0,0,1,221.28-12a10.764,10.764,0,0,1,10.864-10.912A10.764,10.764,0,0,1,243.008-12,10.764,10.764,0,0,1,232.144-1.088ZM263.6-24.512a11.785,11.785,0,0,0-10.944,6.967V-33.12a.438.438,0,0,0-.48-.48h-.736a.438.438,0,0,0-.48.48V-.48a.438.438,0,0,0,.48.48h.736a.438.438,0,0,0,.48-.48V-6.455A11.785,11.785,0,0,0,263.6.512,12.391,12.391,0,0,0,276.08-12,12.391,12.391,0,0,0,263.6-24.511Zm-.08,23.425A10.764,10.764,0,0,1,252.656-12,10.764,10.764,0,0,1,263.52-22.912,10.764,10.764,0,0,1,274.384-12,10.764,10.764,0,0,1,263.52-1.087Zm26.3-23.425c-4.96,0-8.352,2.928-8.624,7.136a.436.436,0,0,0,.48.5h.736a.481.481,0,0,0,.5-.464c.256-3.568,3.168-5.568,6.912-5.568,3.872,0,6.944,2.352,6.944,6.992v5.233c-1.485-2.392-4.463-3.617-7.952-3.617-4.544,0-8.592,2.544-8.592,7.408S284.272.512,288.816.512c3.455,0,6.5-1.023,7.953-3.652V-.48a.438.438,0,0,0,.48.48h.736a.438.438,0,0,0,.48-.48v-15.44c0-5.568-3.808-8.592-8.64-8.592Zm-.752,23.456c-4.5,0-7.152-2.368-7.152-5.84s2.656-5.84,7.152-5.84c4,0,7.7,1.664,7.7,5.84,0,4.112-3.536,5.84-7.7,5.84ZM306.256,0h.736a.438.438,0,0,0,.48-.48v-33.6a.438.438,0,0,0-.48-.48h-.736a.438.438,0,0,0-.48.48V-.48A.438.438,0,0,0,306.256,0Z" transform="translate(-1.005 34.56)" fill="#fff"/>
</svg>
