<svg xmlns="http://www.w3.org/2000/svg" width="241" height="241" viewBox="0 0 241 241">
  <g id="shoof-service-logo" transform="translate(-330 -728)">
    <rect id="Rectangle_242" data-name="Rectangle 242" width="241" height="241" transform="translate(330 728)" fill="#fff"/>
    <path id="logo_hs" d="M1793.941-1003.117a84.631,84.631,0,0,1-16.937-1.709,83.584,83.584,0,0,1-15.74-4.885,83.945,83.945,0,0,1-14.258-7.739,84.583,84.583,0,0,1-12.423-10.25,84.565,84.565,0,0,1-10.251-12.423,84.063,84.063,0,0,1-7.739-14.259,83.488,83.488,0,0,1-4.888-15.759,84.535,84.535,0,0,1-1.705-16.917,84.522,84.522,0,0,1,1.705-16.916,83.478,83.478,0,0,1,4.888-15.76,84,84,0,0,1,7.739-14.258,84.535,84.535,0,0,1,10.251-12.423,84.516,84.516,0,0,1,12.423-10.25,83.947,83.947,0,0,1,14.258-7.739,83.482,83.482,0,0,1,15.759-4.888,84.546,84.546,0,0,1,16.917-1.706,84.513,84.513,0,0,1,16.916,1.706,83.453,83.453,0,0,1,15.76,4.888,83.9,83.9,0,0,1,14.258,7.74,84.511,84.511,0,0,1,12.423,10.25,84.539,84.539,0,0,1,10.25,12.423,83.952,83.952,0,0,1,7.74,14.258,83.62,83.62,0,0,1,4.888,15.76,84.6,84.6,0,0,1,1.705,16.916,84.607,84.607,0,0,1-1.705,16.917,83.633,83.633,0,0,1-4.888,15.759,84.016,84.016,0,0,1-7.74,14.259,84.569,84.569,0,0,1-10.25,12.423,84.558,84.558,0,0,1-12.423,10.25,83.936,83.936,0,0,1-14.258,7.739,83.563,83.563,0,0,1-15.76,4.889A84.578,84.578,0,0,1,1793.941-1003.117Zm.321-130.574a47.009,47.009,0,0,0-46.956,46.955,47.008,47.008,0,0,0,46.956,46.954,47.008,47.008,0,0,0,46.956-46.954A47.009,47.009,0,0,0,1794.262-1133.692Z" transform="translate(-1343.76 1935.347)"/>
  </g>
</svg>
