<svg xmlns="http://www.w3.org/2000/svg" xmlns:xlink="http://www.w3.org/1999/xlink" width="241" height="241" viewBox="0 0 241 241">
  <defs>
    <linearGradient id="linear-gradient" x1="0.5" x2="0.5" y2="1" gradientUnits="objectBoundingBox">
      <stop offset="0" stop-color="#f8534f"/>
      <stop offset="1" stop-color="#f50"/>
    </linearGradient>
  </defs>
  <g id="ofood_logo" transform="translate(-1559 -364)">
    <g id="Rectangle_184" data-name="Rectangle 184" transform="translate(1559 364)" stroke="#fff" stroke-width="1" fill="url(#linear-gradient)">
      <rect width="241" height="241" rx="72" stroke="none"/>
      <rect x="0.5" y="0.5" width="240" height="240" rx="71.5" fill="none"/>
    </g>
    <g id="Group_352" data-name="Group 352">
      <path id="utensils-solid" d="M195.688,81.646l-4.07,50.225a6.51,6.51,0,0,0,6.485,7.055H213.3a6.5,6.5,0,0,0,6.512-6.512V6.512A6.514,6.514,0,0,0,213.3,0C190.912,0,153.223,48.434,195.688,81.646Z" transform="translate(1517.385 415.173)" fill="#fff"/>
      <path id="utensils-solid-2" data-name="utensils-solid" d="M56.411,4.123C56.628,5.4,60.78,29.765,60.78,39.072c0,14.191-7.543,24.312-18.7,28.382l3.5,64.606a6.529,6.529,0,0,1-6.512,6.865H21.707a6.529,6.529,0,0,1-6.512-6.865l3.5-64.606C7.516,63.384,0,53.236,0,39.072,0,29.738,4.151,5.4,4.369,4.123c.868-5.508,12.292-5.59,13,.3V42.735c.353.923,4.1.868,4.341,0,.38-6.865,2.144-37.77,2.171-38.476.9-5.644,12.129-5.644,13,0,.054.733,1.791,31.611,2.171,38.476.244.868,4.016.923,4.341,0V4.422C44.093-1.439,55.543-1.385,56.411,4.123Z" transform="translate(1618.82 415.174)" fill="#fff"/>
    </g>
  </g>
</svg>
